#!OML:ASF H:\Not Pregnant\Project 1\Capture day 1\Session 1\non-pregnant.ASF
:FULLY-SPECIFIED
:DEGREES
967
root 5.00253 16.146 22.2755 11.3078 6.01132 -4.11178
lowerback -6.83579 2.36071 2.6603
upperback -7.35063 3.05468 -0.678591
thorax -3.61785 1.40568 -2.07782
lowerneck 23.9239 -10.5112 -30.1946
upperneck -16.0535 -19.2944 46.1713
head 0.564928 -12.958 25.8195
rclavicle -2.10712e-014 -1.98785e-015
rhumerus -31.5296 2.64838 -86.5294
rradius 25.0262
rwrist 36.4103
rhand -3.87949 3.82753
rfingers 7.12502
rthumb 21.8697 -24.9566
lclavicle -2.10712e-014 -1.98785e-015
lhumerus -53.1132 -22.1896 104.41
lradius 77.0947
lwrist 51.8072
lhand -26.5283 -7.68626
lfingers 7.12502
lthumb 0.035507 22.2935
rfemur -28.4464 2.3488 24.1351
rtibia 26.0893
rfoot -12.3916 16.6932
rtoes -19.4378
lfemur -5.85253 -9.05793 -12.7862
ltibia 18.2683
lfoot -20.9136 -13.0206
ltoes -18.1808
968
root 4.99147 16.1476 22.2992 11.3869 5.99535 -4.1112
lowerback -6.95176 2.28841 2.63868
upperback -7.35559 2.95637 -0.639187
thorax -3.56699 1.35908 -2.0243
lowerneck 23.8581 -10.4818 -30.1977
upperneck -15.9896 -19.251 46.1648
head 0.572546 -12.9287 25.8202
rclavicle 8.19987e-015 1.78906e-014
rhumerus -31.4929 2.9682 -86.4781
rradius 25.4287
rwrist 34.9837
rhand -4.34887 3.55405
rfingers 7.12502
rthumb 21.4189 -25.282
lclavicle 8.19987e-015 1.78906e-014
lhumerus -53.2452 -22.5225 104.519
lradius 77.0642
lwrist 52.1858
lhand -26.5612 -7.64762
lfingers 7.12502
lthumb 0.00368812 22.3321
rfemur -28.4585 2.11839 24.2438
rtibia 26.0982
rfoot -12.4825 16.9602
rtoes -19.2204
lfemur -5.73672 -8.89176 -12.8008
ltibia 18.1471
lfoot -20.8177 -12.738
ltoes -18.4125
969
root 4.98062 16.1486 22.3217 11.4525 5.98766 -4.11509
lowerback -7.045 2.21036 2.62035
upperback -7.36458 2.85117 -0.595659
thorax -3.53325 1.30864 -1.97
lowerneck 23.8031 -10.4495 -30.2045
upperneck -15.9176 -19.2092 46.1506
head 0.579526 -12.8999 25.8163
rclavicle -2.47487e-014 4.37326e-015
rhumerus -31.4741 3.26023 -86.4303
rradius 25.8521
rwrist 33.5557
rhand -4.82385 3.27148
rfingers 7.12502
rthumb 20.9627 -25.6157
lclavicle -2.47487e-014 4.37326e-015
lhumerus -53.3826 -22.8159 104.625
lradius 77.0341
lwrist 52.516
lhand -26.5958 -7.5326
lfingers 7.12502
lthumb -0.0297012 22.4471
rfemur -28.4674 1.87721 24.3589
rtibia 26.1201
rfoot -12.5768 17.2285
rtoes -18.9939
lfemur -5.60051 -8.70663 -12.8123
ltibia 18.0065
lfoot -20.726 -12.4575
ltoes -18.6877
970
root 4.9701 16.1491 22.3427 11.506 5.98486 -4.12304
lowerback -7.11164 2.12721 2.60629
upperback -7.37764 2.73996 -0.548358
thorax -3.51868 1.25473 -1.91581
lowerneck 23.7456 -10.4179 -30.2154
upperneck -15.8324 -19.1724 46.1284
head 0.591714 -12.8723 25.8029
rclavicle 4.25896e-014 2.90226e-014
rhumerus -31.469 3.5032 -86.3803
rradius 26.2863
rwrist 32.1701
rhand -5.32727 2.99088
rfingers 7.12502
rthumb 20.4789 -25.9491
lclavicle 4.25896e-014 2.90226e-014
lhumerus -53.5138 -23.0818 104.732
lradius 76.9929
lwrist 52.7975
lhand -26.6272 -7.36086
lfingers 7.12502
lthumb -0.0600719 22.6189
rfemur -28.4724 1.63243 24.4776
rtibia 26.1486
rfoot -12.6715 17.4947
rtoes -18.7707
lfemur -5.45308 -8.51095 -12.8215
ltibia 17.8597
lfoot -20.6404 -12.173
ltoes -18.9878
971
root 4.96002 16.1494 22.3631 11.5536 5.98798 -4.1342
lowerback -7.16978 2.04201 2.59771
upperback -7.39026 2.62611 -0.49869
thorax -3.50816 1.19924 -1.86282
lowerneck 23.6907 -10.3845 -30.2281
upperneck -15.7461 -19.1343 46.1047
head 0.602989 -12.844 25.7899
rclavicle 1.03368e-014 9.14409e-015
rhumerus -31.4709 3.7117 -86.3305
rradius 26.734
rwrist 30.8183
rhand -5.86239 2.70905
rfingers 7.12502
rthumb 19.9646 -26.2854
lclavicle 1.03368e-014 9.14409e-015
lhumerus -53.6377 -23.322 104.837
lradius 76.9449
lwrist 53.0205
lhand -26.6446 -7.16294
lfingers 7.12502
lthumb -0.0768514 22.8168
rfemur -28.4763 1.38531 24.5976
rtibia 26.1796
rfoot -12.7628 17.7614
rtoes -18.5211
lfemur -5.30138 -8.31217 -12.8289
ltibia 17.7104
lfoot -20.5626 -11.8839
ltoes -19.3059
